<?xml version="1.0" encoding="UTF-8"?>
<!DOCTYPE svg PUBLIC "-//W3C//DTD SVG 1.1//EN" "http://www.w3.org/Graphics/SVG/1.1/DTD/svg11.dtd">
<!-- Creator: CorelDRAW -->
<svg xmlns="http://www.w3.org/2000/svg" xml:space="preserve" width="6.82666in" height="6.82666in" style="shape-rendering:geometricPrecision; text-rendering:geometricPrecision; image-rendering:optimizeQuality; fill-rule:evenodd; clip-rule:evenodd"
viewBox="0 0 6.82666 6.82666"
 xmlns:xlink="http://www.w3.org/1999/xlink">
 <defs>
  <style type="text/css">
   <![CDATA[
    .fil2 {fill:none}
    .fil1 {fill:black}
    .fil0 {fill:black;fill-rule:nonzero}
   ]]>
  </style>
 </defs>
 <g id="Layer_x0020_1">
  <metadata id="CorelCorpID_0Corel-Layer"/>
  <g id="_461079864">
   <path id="_461080848" class="fil0" d="M3.74308 4.62661l0 0.826071 -0.106669 0 0 -0.826071 0.106669 0zm-0.659496 0.826071l0 -0.826071 0.106669 0 0 0.826071 -0.106669 0z"/>
   <path id="_461080464" class="fil0" d="M2.52462 5.39935l1.77742 0c0.0789764,0 0.15074,0.0322756 0.202728,0.0842598 0.0519882,0.0519882 0.0842598,0.123752 0.0842598,0.202728l0 0.233657c0,0.0294528 -0.0238819,0.0533346 -0.0533346,0.0533346l-2.24472 0c-0.0294528,0 -0.0533346,-0.0238819 -0.0533346,-0.0533346l0 -0.233657c0,-0.0789764 0.0322756,-0.15074 0.0842598,-0.202728 0.0519882,-0.0519843 0.123752,-0.0842598 0.202728,-0.0842598zm1.77742 0.106669l-1.77742 0c-0.0495315,0 -0.0946063,0.0203071 -0.127311,0.0530079 -0.0327008,0.0327047 -0.0530079,0.0777795 -0.0530079,0.127311l0 0.180323 2.13806 0 0 -0.180323c0,-0.0495315 -0.0203031,-0.0946063 -0.0530079,-0.127311 -0.0327047,-0.0327008 -0.0777795,-0.0530079 -0.127311,-0.0530079z"/>
   <path id="_461081160" class="fil1" d="M3.41333 5.60634c0.044185,0 0.0800039,0.0358189 0.0800039,0.0800039 0,0.044185 -0.0358189,0.0800039 -0.0800039,0.0800039 -0.044185,0 -0.0800039,-0.0358189 -0.0800039,-0.0800039 0,-0.044185 0.0358189,-0.0800039 0.0800039,-0.0800039z"/>
   <path id="_461080632" class="fil0" d="M3.41333 2.39424c0.10539,0 0.200811,0.0427205 0.269882,0.111791 0.0690709,0.0690709 0.111795,0.164492 0.111795,0.269882 0,0.10539 -0.0427244,0.200807 -0.111795,0.269878 -0.0690709,0.0690709 -0.164492,0.111795 -0.269882,0.111795 -0.10539,0 -0.200807,-0.0427244 -0.269878,-0.111795 -0.0690709,-0.0690709 -0.111795,-0.164492 -0.111795,-0.269878 0,-0.10539 0.0427244,-0.200807 0.111795,-0.269878 0.0690709,-0.0690709 0.164488,-0.111795 0.269878,-0.111795zm0.194465 0.187209c-0.0497598,-0.0497598 -0.11852,-0.0805394 -0.194465,-0.0805394 -0.0759449,0 -0.144701,0.0307835 -0.194461,0.0805433 -0.0497598,0.0497598 -0.0805433,0.118516 -0.0805433,0.194461 0,0.0759409 0.0307835,0.144701 0.0805433,0.194461 0.0497598,0.0497598 0.118516,0.0805433 0.194461,0.0805433 0.0759449,0 0.144705,-0.0307835 0.194465,-0.0805433 0.0497598,-0.0497598 0.0805433,-0.118516 0.0805433,-0.194461 0,-0.0759449 -0.0307835,-0.144705 -0.0805433,-0.194465z"/>
   <path id="_461080728" class="fil0" d="M3.17688 2.52048c-0.00877953,-0.0111378 -0.0201614,-0.0247598 -0.0336496,-0.0408937 -0.104831,-0.125441 -0.328535,-0.393118 -0.363728,-0.690638 -0.0105,-0.0888425 -0.00557874,-0.180594 0.0234449,-0.263413 0.0259488,-0.0740315 0.070685,-0.140299 0.140043,-0.190567 0.132169,-0.0957874 0.341016,-0.14161 0.544252,-0.11011 0.173862,0.0269409 0.34478,0.109913 0.462287,0.265713 0.107059,0.141937 0.0208661,0.250469 -0.0904528,0.390626 -0.110969,0.139717 -0.252394,0.317783 -0.196319,0.599004l-0.104583 0.0208346c-0.0656929,-0.329445 0.0930276,-0.529287 0.217571,-0.686091 0.0823976,-0.103744 0.146205,-0.184083 0.0887835,-0.260209 -0.0992323,-0.131571 -0.24487,-0.201839 -0.393539,-0.224878 -0.175843,-0.027252 -0.354374,0.0108189 -0.465504,0.0913622 -0.0504606,0.0365748 -0.0830984,0.0850394 -0.102122,0.139315 -0.0231575,0.0660748 -0.026815,0.141555 -0.0180276,0.215917 0.0314803,0.266161 0.24126,0.517173 0.339563,0.634803 0.0145472,0.0174016 0.0268228,0.0320906 0.0357283,0.0433898l-0.083748 0.0658346z"/>
   <path id="_461081088" class="fil0" d="M3.41333 0.853335c0.530902,0 1.01155,0.215193 1.35947,0.563114 0.347921,0.347921 0.563118,0.828567 0.563118,1.35947 0,0.530902 -0.215197,1.01155 -0.563118,1.35947 -0.347921,0.347921 -0.828567,0.563114 -1.35947,0.563114 -0.530902,0 -1.01155,-0.215193 -1.35947,-0.563114 -0.347921,-0.347921 -0.563114,-0.828571 -0.563114,-1.35947 0,-0.530902 0.215193,-1.01155 0.563114,-1.35947 0.347921,-0.347921 0.828567,-0.563114 1.35947,-0.563114zm1.28405 0.638531c-0.32861,-0.32861 -0.782594,-0.531862 -1.28405,-0.531862 -0.501457,0 -0.955441,0.203252 -1.28405,0.531862 -0.32861,0.32861 -0.531862,0.782594 -0.531862,1.28405 0,0.501453 0.203252,0.955441 0.531862,1.28405 0.32861,0.32861 0.782594,0.531862 1.28405,0.531862 0.501457,0 0.955441,-0.203252 1.28405,-0.531862 0.32861,-0.32861 0.531866,-0.782594 0.531866,-1.28405 0,-0.501457 -0.203256,-0.955441 -0.531866,-1.28405z"/>
   <path id="_461081136" class="fil0" d="M3.66877 2.53946c0.0111417,-0.00878346 0.0247717,-0.0201732 0.0409134,-0.0336654 0.125449,-0.104831 0.393122,-0.32852 0.690622,-0.363709 0.0888425,-0.0105039 0.180591,-0.00558268 0.263406,0.0234409 0.0740354,0.0259488 0.140303,0.070689 0.190575,0.140043 0.0957874,0.132169 0.141606,0.341016 0.11011,0.54426 -0.0269409,0.17385 -0.109913,0.344772 -0.265713,0.46228 -0.141933,0.107059 -0.250472,0.0208661 -0.390626,-0.0904528 -0.13972,-0.110969 -0.317787,-0.252394 -0.599004,-0.196319l-0.0208346 -0.104583c0.329441,-0.0656929 0.529283,0.0930276 0.686091,0.217571 0.103744,0.0823976 0.184083,0.146205 0.260209,0.0887835 0.131571,-0.0992323 0.201843,-0.244874 0.224878,-0.393531 0.027248,-0.17585 -0.0108228,-0.354382 -0.0913622,-0.465512 -0.0365709,-0.0504567 -0.0850433,-0.0830984 -0.139323,-0.102122 -0.0660709,-0.0231575 -0.141551,-0.026815 -0.215909,-0.0180236 -0.266146,0.0314803 -0.51715,0.24124 -0.634787,0.339543 -0.0174134,0.0145551 -0.0321063,0.0268307 -0.0434094,0.0357441l-0.0658346 -0.083748z"/>
   <path id="_461080008" class="fil0" d="M3.64978 3.03135c0.00878346,0.0111417 0.0201732,0.0247717 0.0336654,0.0409134 0.104831,0.125449 0.32852,0.393122 0.363709,0.690622 0.0105039,0.0888465 0.00557874,0.180591 -0.0234449,0.263409 -0.0259488,0.0740354 -0.070685,0.140299 -0.140039,0.190567 -0.132169,0.0957874 -0.341016,0.14161 -0.544256,0.110114 -0.173854,-0.0269409 -0.344776,-0.109913 -0.462283,-0.265713 -0.107067,-0.141941 -0.0208701,-0.250472 0.0904528,-0.390626 0.110969,-0.13972 0.252394,-0.317787 0.196319,-0.599004l0.104583 -0.0208346c0.0656929,0.329441 -0.0930276,0.529283 -0.217571,0.686091 -0.0824016,0.103744 -0.146209,0.184083 -0.0887835,0.260209 0.0992362,0.131575 0.244874,0.201843 0.393535,0.224878 0.175843,0.027248 0.354378,-0.0108228 0.465508,-0.0913661 0.0504567,-0.0365709 0.0830945,-0.0850394 0.102118,-0.139315 0.0231575,-0.0660748 0.0268189,-0.141551 0.0180276,-0.215913 -0.0314803,-0.266146 -0.24124,-0.51715 -0.339543,-0.634787 -0.0145551,-0.0174134 -0.0268307,-0.0321063 -0.0357441,-0.0434094l0.083748 -0.0658346z"/>
   <path id="_461080176" class="fil0" d="M3.15789 3.01237c-0.0111496,0.00879134 -0.0247756,0.0201772 -0.0409173,0.0336654 -0.125453,0.104839 -0.393118,0.328524 -0.690618,0.363713 -0.0888465,0.0105039 -0.180594,0.00557874 -0.263409,-0.0234449 -0.0740354,-0.0259488 -0.140303,-0.070685 -0.190575,-0.140039 -0.0957874,-0.132169 -0.141606,-0.341016 -0.110106,-0.544256 0.0269409,-0.173854 0.109913,-0.344776 0.265713,-0.462283 0.141933,-0.107063 0.250465,-0.0208661 0.390626,0.0904528 0.139717,0.110969 0.317783,0.252394 0.599004,0.196315l0.0208346 0.104583c-0.329445,0.0656969 -0.529287,-0.0930236 -0.686091,-0.217567 -0.103748,-0.0824016 -0.184087,-0.146205 -0.260209,-0.0887835 -0.131575,0.0992362 -0.201843,0.244874 -0.224878,0.393535 -0.027252,0.175846 0.010815,0.354378 0.0913583,0.465508 0.0365709,0.0504567 0.0850433,0.0830945 0.139323,0.102118 0.0660748,0.0231575 0.141551,0.0268189 0.215913,0.0180276 0.266146,-0.0314803 0.517146,-0.24124 0.634783,-0.339547 0.0174173,-0.0145551 0.0321181,-0.0268386 0.0434134,-0.0357441l0.0658346 0.083748z"/>
  </g>
 </g>
 <rect class="fil2" width="6.82666" height="6.82666"/>
</svg>
