<?xml version="1.0" encoding="iso-8859-1"?>
<!-- Generator: Adobe Illustrator 19.0.0, SVG Export Plug-In . SVG Version: 6.00 Build 0)  -->
<svg version="1.1" id="Capa_1" xmlns="http://www.w3.org/2000/svg" xmlns:xlink="http://www.w3.org/1999/xlink" x="0px" y="0px"
	 viewBox="0 0 512 512" style="enable-background:new 0 0 512 512;" xml:space="preserve">
<g>
	<g>
		<path d="M419.066,159.93c-1.859-1.86-4.429-2.93-7.069-2.93c-2.631,0-5.21,1.07-7.07,2.93c-1.86,1.86-2.93,4.44-2.93,7.07
			s1.069,5.21,2.93,7.07c1.861,1.86,4.439,2.93,7.07,2.93c2.63,0,5.21-1.07,7.069-2.93c1.86-1.86,2.931-4.44,2.931-7.07
			S420.927,161.79,419.066,159.93z"/>
	</g>
</g>
<g>
	<g>
		<path d="M412,131.205c5.522,0,10-4.477,10-10V30c0-16.542-13.458-30-30-30H120c-16.542,0-30,13.458-30,30v452
			c0,16.542,13.458,30,30,30h272c16.542,0,30-13.458,30-30V212c0-5.523-4.478-10-10-10c-5.522,0-10,4.477-10,10v208H185.674
			c-5.522,0-10,4.477-10,10s4.478,10,10,10H402v42c0,5.514-4.486,10-10,10H120c-5.514,0-10-4.486-10-10V73.994h292v47.211
			C402,126.728,406.478,131.205,412,131.205z M110,53.994V30c0-5.514,4.486-10,10-10h272c5.514,0,10,4.486,10,10v23.994H110z"/>
	</g>
</g>
<g>
	<g>
		<path d="M150.076,422.93c-1.859-1.86-4.439-2.93-7.069-2.93s-5.21,1.07-7.07,2.93s-2.93,4.44-2.93,7.07s1.069,5.21,2.93,7.07
			c1.861,1.86,4.44,2.93,7.07,2.93s5.21-1.07,7.069-2.93c1.86-1.86,2.931-4.44,2.931-7.07S151.937,424.79,150.076,422.93z"/>
	</g>
</g>
<g>
	<g>
		<path d="M263.057,458.92c-1.86-1.86-4.43-2.93-7.07-2.93c-2.63,0-5.21,1.07-7.069,2.93c-1.86,1.86-2.931,4.44-2.931,7.07
			s1.07,5.21,2.931,7.07c1.859,1.86,4.439,2.93,7.069,2.93c2.64,0,5.209-1.07,7.07-2.93c1.87-1.86,2.93-4.44,2.93-7.07
			S264.927,460.78,263.057,458.92z"/>
	</g>
</g>
<g>
	<g>
		<path d="M342.982,183.426l-79.903-79.903c-3.906-3.904-10.236-3.904-14.143,0l-79.903,79.903
			c-47.957,47.958-47.957,125.99,0,173.948c23.979,23.979,55.476,35.968,86.974,35.968s62.995-11.989,86.975-35.968
			C390.939,309.416,390.939,231.384,342.982,183.426z M328.839,343.231c-20.082,20.083-46.453,30.122-72.832,30.12
			c-26.373-0.002-52.755-10.042-72.832-30.119c-40.16-40.16-40.16-105.504,0-145.664l72.832-72.833l72.832,72.833
			C368.999,237.727,368.999,303.072,328.839,343.231z"/>
	</g>
</g>
<g>
	<g>
		<path d="M284.125,215.02c-4.808-2.714-10.909-1.019-13.624,3.792l-58.942,104.409c-2.715,4.809-1.018,10.909,3.792,13.624
			c1.554,0.877,3.241,1.294,4.907,1.294c3.489,0,6.879-1.83,8.717-5.086l58.942-104.409
			C290.632,223.834,288.935,217.735,284.125,215.02z"/>
	</g>
</g>
<g>
	<g>
		<path d="M296.438,284.556c-16.542,0-30,13.458-30,30s13.458,30,30,30s30-13.458,30-30S312.98,284.556,296.438,284.556z
			 M296.438,324.556c-5.514,0-10-4.486-10-10c0-5.514,4.486-10,10-10c5.514,0,10,4.486,10,10
			C306.438,320.07,301.952,324.556,296.438,324.556z"/>
	</g>
</g>
<g>
	<g>
		<path d="M215.83,196.065c-16.542,0-30,13.458-30,30s13.458,30,30,30s30-13.458,30-30S232.372,196.065,215.83,196.065z
			 M215.83,236.065c-5.514,0-10-4.486-10-10c0-5.514,4.486-10,10-10c5.514,0,10,4.486,10,10
			C225.83,231.579,221.344,236.065,215.83,236.065z"/>
	</g>
</g>
<g>
</g>
<g>
</g>
<g>
</g>
<g>
</g>
<g>
</g>
<g>
</g>
<g>
</g>
<g>
</g>
<g>
</g>
<g>
</g>
<g>
</g>
<g>
</g>
<g>
</g>
<g>
</g>
<g>
</g>
</svg>
