<?xml version="1.0" encoding="UTF-8" standalone="no"?> <svg id="Layer_1" enable-background="new 0 0 512.876 512.876" height="512" viewBox="0 0 512.876 512.876" width="512" xmlns="http://www.w3.org/2000/svg"><g><g><path d="m481.883 247.428c-4.947-120.358-103.908-216.672-225.952-216.672-30.513 0-60.136 5.985-88.045 17.79l-6.907 2.922 31.165 73.68 6.908-2.921c52.259-22.105 115.692-12.572 159.549 30.77 25.723 25.421 40.888 58.712 43.177 94.432h-30.468l70.783 100.741 70.783-100.741h-30.993zm-81.701 15h16.982l-.097-7.596c-1.124-88.023-72.945-159.076-161.136-159.076-19.236 0-37.953 3.325-55.748 9.894l-19.494-46.088c74.474-28.442 163.159-13.355 224.556 48.042 39.374 39.374 61.331 91.718 61.825 147.39l.066 7.434h16.869l-41.911 59.649z"/><path d="m313.823 390.614c-52.251 22.109-115.703 12.564-159.552-30.77-25.722-25.42-40.886-58.712-43.175-94.433h30.466l-70.787-100.736-70.775 100.736h30.991c2.404 58.523 27.141 114.573 72.344 156.508l10.201-10.997c-43.086-39.97-67.215-94.662-67.731-153.078l-.065-7.434h-16.869l41.905-59.645 41.913 59.645h-16.98l.097 7.596c1.123 88.026 72.94 159.074 161.129 159.074 19.25 0 37.969-3.324 55.756-9.891l19.493 46.092c-66.46 25.374-146.395 16.664-207.665-32.855l-9.429 11.666c68.079 55.023 157.266 62.919 229.896 32.205l6.908-2.921-31.163-73.687z"/><path d="m256.436 178.693 27.956 46.398 12.848-7.741-40.804-67.721-59.813 99.27c-28.74 47.678 6.134 109.363 62.456 107.238 53.271-1.794 84.962-61.134 57.172-107.236l-11.03-18.31-12.849 7.74 11.031 18.312c22.525 37.368-4.47 86.137-49.104 84.502-41.821-1.409-66.712-48.198-44.829-84.504z"/></g><g><path d="m351.796 103.038c-4.022-2.487-8.236-4.851-12.524-7.025l6.782-13.379c4.665 2.365 9.252 4.938 13.633 7.647zm-39.159-17.934c-4.54-1.457-9.217-2.766-13.901-3.89l3.501-14.586c5.047 1.211 10.089 2.623 14.984 4.194zm-42.407-8.564c-4.785-.433-9.642-.697-14.437-.786l.275-14.997c5.153.094 10.373.378 15.513.844z"/></g><g><path d="m283.57 429.921h15v15h-15z"/></g><g><path d="m62.57 228.921h15v15h-15z"/></g><g><path d="m434.436 266.921h15v15h-15z"/></g><g><path d="m249.003 283.581h15v15h-15z"/></g></g></svg>